<?xml version="1.0" standalone="no"?>
<!DOCTYPE svg PUBLIC "-//W3C//DTD SVG 20010904//EN"
 "http://www.w3.org/TR/2001/REC-SVG-20010904/DTD/svg10.dtd">
<svg version="1.0" xmlns="http://www.w3.org/2000/svg"
 width="392.000000pt" height="248.000000pt" viewBox="0 0 392.000000 248.000000"
 preserveAspectRatio="xMidYMid meet">

<g transform="translate(0.000000,248.000000) scale(0.100000,-0.100000)"
fill="#0a4da7" stroke="none">
<path d="M1951 2073 c-238 -3 -277 -6 -293 -20 -16 -15 -18 -38 -18 -268 0
-182 -3 -254 -12 -263 -9 -9 -79 -12 -256 -12 -148 0 -251 -4 -263 -10 -18
-10 -19 -24 -19 -325 0 -313 0 -314 22 -329 19 -14 62 -16 270 -16 l248 0 5
-22 c3 -13 6 -137 7 -276 3 -212 5 -254 18 -262 9 -6 151 -10 336 -10 298 0
322 1 337 18 14 16 17 44 17 187 l0 168 -199 201 c-118 119 -208 219 -222 246
-20 38 -24 60 -24 140 0 79 4 103 23 142 31 62 89 121 154 155 46 23 64 27
133 26 44 -1 91 -3 105 -5 l25 -3 3 252 2 251 -26 21 c-18 14 -39 20 -63 19
-20 -2 -159 -4 -310 -5z"/>
<path d="M2590 1513 c-31 -11 -66 -37 -112 -85 l-67 -68 -46 29 c-129 82 -273
50 -338 -74 -27 -53 -26 -128 3 -186 23 -45 424 -459 445 -459 21 0 412 404
435 450 32 61 40 192 16 253 -21 55 -89 122 -145 142 -55 19 -132 18 -191 -2z"/>
</g>
</svg>
